<mxfile host="app.diagrams.net" modified="2020-10-25T05:53:42.935Z" agent="5.0 (Windows NT 10.0; Win64; x64) AppleWebKit/537.36 (KHTML, like Gecko) Chrome/86.0.4240.111 Safari/537.36" etag="VQQQFkj19rUqgUkYGSs7" version="13.8.1" type="github">
  <diagram id="nbLHzzIpgsSX3lSXFZ0g" name="Page-1">
    <mxGraphModel dx="1422" dy="762" grid="1" gridSize="10" guides="1" tooltips="1" connect="1" arrows="1" fold="1" page="1" pageScale="1" pageWidth="827" pageHeight="1169" math="0" shadow="0">
      <root>
        <mxCell id="0" />
        <mxCell id="1" parent="0" />
        <mxCell id="tH4_mHdMvIjmKbrQCW7e-4" style="edgeStyle=orthogonalEdgeStyle;rounded=0;orthogonalLoop=1;jettySize=auto;html=1;fontSize=16;" edge="1" parent="1" source="tH4_mHdMvIjmKbrQCW7e-1" target="tH4_mHdMvIjmKbrQCW7e-3">
          <mxGeometry relative="1" as="geometry" />
        </mxCell>
        <mxCell id="tH4_mHdMvIjmKbrQCW7e-1" value="CPU 写入数据操作" style="rounded=1;whiteSpace=wrap;html=1;fontSize=16;fillColor=#ffcccc;strokeColor=none;" vertex="1" parent="1">
          <mxGeometry x="240" y="170" width="160" height="70" as="geometry" />
        </mxCell>
        <mxCell id="tH4_mHdMvIjmKbrQCW7e-6" value="YES" style="edgeStyle=orthogonalEdgeStyle;rounded=0;orthogonalLoop=1;jettySize=auto;html=1;entryX=0.5;entryY=0;entryDx=0;entryDy=0;fontSize=16;" edge="1" parent="1" source="tH4_mHdMvIjmKbrQCW7e-3" target="tH4_mHdMvIjmKbrQCW7e-5">
          <mxGeometry relative="1" as="geometry" />
        </mxCell>
        <mxCell id="tH4_mHdMvIjmKbrQCW7e-8" value="NO" style="edgeStyle=orthogonalEdgeStyle;rounded=0;orthogonalLoop=1;jettySize=auto;html=1;fontSize=16;" edge="1" parent="1" source="tH4_mHdMvIjmKbrQCW7e-3" target="tH4_mHdMvIjmKbrQCW7e-7">
          <mxGeometry relative="1" as="geometry" />
        </mxCell>
        <mxCell id="tH4_mHdMvIjmKbrQCW7e-3" value="检查数据是否在 &lt;br&gt;CPU Cache 里面？" style="rhombus;whiteSpace=wrap;html=1;fontSize=16;fillColor=#ffff88;strokeColor=none;" vertex="1" parent="1">
          <mxGeometry x="227" y="300" width="186" height="170" as="geometry" />
        </mxCell>
        <mxCell id="tH4_mHdMvIjmKbrQCW7e-11" style="edgeStyle=orthogonalEdgeStyle;rounded=0;orthogonalLoop=1;jettySize=auto;html=1;entryX=1;entryY=0.5;entryDx=0;entryDy=0;fontSize=16;exitX=0.5;exitY=1;exitDx=0;exitDy=0;" edge="1" parent="1" source="tH4_mHdMvIjmKbrQCW7e-5" target="tH4_mHdMvIjmKbrQCW7e-7">
          <mxGeometry relative="1" as="geometry" />
        </mxCell>
        <mxCell id="tH4_mHdMvIjmKbrQCW7e-5" value="数据写入到 &lt;br&gt;Cache Block" style="rounded=1;whiteSpace=wrap;html=1;fontSize=16;fillColor=#cce5ff;strokeColor=none;" vertex="1" parent="1">
          <mxGeometry x="490" y="440" width="160" height="70" as="geometry" />
        </mxCell>
        <mxCell id="tH4_mHdMvIjmKbrQCW7e-10" style="edgeStyle=orthogonalEdgeStyle;rounded=0;orthogonalLoop=1;jettySize=auto;html=1;fontSize=16;" edge="1" parent="1" source="tH4_mHdMvIjmKbrQCW7e-7" target="tH4_mHdMvIjmKbrQCW7e-9">
          <mxGeometry relative="1" as="geometry" />
        </mxCell>
        <mxCell id="tH4_mHdMvIjmKbrQCW7e-7" value="数据写入到内存" style="rounded=1;whiteSpace=wrap;html=1;fontSize=16;fillColor=#cce5ff;strokeColor=none;" vertex="1" parent="1">
          <mxGeometry x="240" y="549.5" width="160" height="70" as="geometry" />
        </mxCell>
        <mxCell id="tH4_mHdMvIjmKbrQCW7e-9" value="完成" style="rounded=1;whiteSpace=wrap;html=1;fontSize=16;fillColor=#ffcccc;strokeColor=none;" vertex="1" parent="1">
          <mxGeometry x="240" y="680" width="160" height="70" as="geometry" />
        </mxCell>
      </root>
    </mxGraphModel>
  </diagram>
</mxfile>
